<?xml version="1.0" standalone="no"?>
<!DOCTYPE svg PUBLIC "-//W3C//DTD SVG 20010904//EN"
 "http://www.w3.org/TR/2001/REC-SVG-20010904/DTD/svg10.dtd">
<svg version="1.0" xmlns="http://www.w3.org/2000/svg"
 width="700.000000pt" height="700.000000pt" viewBox="0 0 700.000000 700.000000"
 preserveAspectRatio="xMidYMid meet">
<metadata>
Created by potrace 1.14, written by Peter Selinger 2001-2017
</metadata>
<g transform="translate(0.000000,700.000000) scale(0.100000,-0.100000)"
fill="#000000" stroke="none">
<path d="M4659 6996 c-2 -2 -38 -7 -79 -10 -362 -32 -755 -193 -1080 -444 -85
-66 -1608 -1579 -1747 -1736 -132 -149 -314 -399 -392 -538 -12 -21 -31 -55
-42 -75 -123 -215 -224 -462 -322 -788 -14 -46 -59 -252 -70 -320 -25 -155
-30 -193 -43 -340 -8 -85 -12 -1005 -4 -1005 2 0 591 586 1307 1302 1006 1006
1313 1308 1348 1324 102 48 229 2 283 -101 21 -40 24 -131 6 -175 -10 -24
-587 -607 -1783 -1805 -1437 -1438 -1773 -1779 -1792 -1820 -20 -41 -24 -66
-24 -140 0 -78 4 -97 27 -140 62 -119 178 -186 310 -181 127 5 132 10 587 463
l410 409 518 0 c669 1 745 6 1098 69 351 64 805 241 1130 441 114 70 140 95
155 150 30 105 -56 213 -168 214 -54 0 -98 27 -121 72 -27 56 -13 123 34 154
14 9 137 50 273 91 136 41 306 93 377 114 72 22 137 41 145 43 49 12 351 106
380 118 34 15 343 315 397 385 36 48 44 152 15 209 -25 50 -63 87 -110 110
-32 15 -72 17 -302 19 -240 1 -268 3 -293 19 -57 38 -73 113 -37 171 20 32 56
52 145 78 28 8 88 27 135 41 192 58 417 125 450 134 19 6 112 34 205 62 94 28
186 56 205 62 218 63 470 142 497 154 63 31 114 118 190 324 40 110 81 262 89
334 4 28 8 54 10 58 17 29 25 403 12 533 -7 63 -21 153 -32 212 -30 149 -107
364 -185 518 -123 240 -249 406 -475 624 -111 107 -108 104 -151 136 -22 17
-44 35 -50 41 -11 13 -143 104 -150 104 -2 0 -21 12 -42 26 -55 38 -214 116
-321 158 -232 91 -464 136 -733 142 -102 2 -188 2 -190 0z"/>
</g>
</svg>
